<?xml version="1.0" encoding="UTF-8"?>
<svg height="128px" viewBox="0 0 128 128" width="128px" xmlns="http://www.w3.org/2000/svg" xmlns:xlink="http://www.w3.org/1999/xlink">
    <linearGradient id="a" gradientUnits="userSpaceOnUse" x1="12" x2="116" y1="64" y2="64">
        <stop offset="0" stop-color="#241f31"/>
        <stop offset="0.03" stop-color="#3d3846"/>
        <stop offset="0.07" stop-color="#241f31"/>
        <stop offset="0.93" stop-color="#241f31"/>
        <stop offset="0.97" stop-color="#3d3846"/>
        <stop offset="1" stop-color="#241f31"/>
    </linearGradient>
    <linearGradient id="b" gradientUnits="userSpaceOnUse" x1="44" x2="84" y1="64" y2="64">
        <stop offset="0" stop-color="#9a9996"/>
        <stop offset="0.25" stop-color="#77767b"/>
        <stop offset="0.75" stop-color="#77767b"/>
        <stop offset="1" stop-color="#9a9996"/>
    </linearGradient>
    <path d="m 19.988281 12 h 88.023438 c 4.410156 0 7.988281 3.578125 7.988281 7.988281 v 88.023438 c 0 4.410156 -3.578125 7.988281 -7.988281 7.988281 h -88.023438 c -4.410156 0 -7.988281 -3.578125 -7.988281 -7.988281 v -88.023438 c 0 -4.410156 3.578125 -7.988281 7.988281 -7.988281 z m 0 0" fill="url(#a)"/>
    <path d="m 19.976562 12 h 88.046876 c 4.40625 0 7.976562 3.570312 7.976562 7.976562 v 78.046876 c 0 4.40625 -3.570312 7.976562 -7.976562 7.976562 h -88.046876 c -4.40625 0 -7.976562 -3.570312 -7.976562 -7.976562 v -78.046876 c 0 -4.40625 3.570312 -7.976562 7.976562 -7.976562 z m 0 0" fill="#3d3846"/>
    <path d="m 64 40 c 11.046875 0 20 8.953125 20 20 v 8 c 0 11.046875 -8.953125 20 -20 20 s -20 -8.953125 -20 -20 v -8 c 0 -11.046875 8.953125 -20 20 -20 z m 0 0" fill="url(#b)"/>
    <path d="m 84 60 c 0 11.046875 -8.953125 20 -20 20 s -20 -8.953125 -20 -20 s 8.953125 -20 20 -20 s 20 8.953125 20 20 z m 0 0" fill="#f6f5f4"/>
    <path d="m 64 18 c 1.105469 0 2 0.894531 2 2 v 12 c 0 1.105469 -0.894531 2 -2 2 s -2 -0.894531 -2 -2 v -12 c 0 -1.105469 0.894531 -2 2 -2 z m 0 0" fill="#f6f5f4"/>
    <path d="m 64 42 c 1.105469 0 2 0.894531 2 2 v 6 c 0 1.105469 -0.894531 2 -2 2 s -2 -0.894531 -2 -2 v -6 c 0 -1.105469 0.894531 -2 2 -2 z m 0 0" fill="#3d3846"/>
    <g fill="#f6f5f4">
        <path d="m 38 60 c 0 1.105469 -0.894531 2 -2 2 h -12 c -1.105469 0 -2 -0.894531 -2 -2 s 0.894531 -2 2 -2 h 12 c 1.105469 0 2 0.894531 2 2 z m 0 0"/>
        <path d="m 45.414062 41.414062 c -0.78125 0.777344 -2.050781 0.777344 -2.832031 0 l -14.140625 -14.144531 c -0.78125 -0.78125 -0.78125 -2.046875 0 -2.828125 s 2.046875 -0.78125 2.828125 0 l 14.144531 14.140625 c 0.777344 0.78125 0.777344 2.050781 0 2.832031 z m 0 0"/>
        <path d="m 82.585938 41.414062 c -0.78125 -0.78125 -0.78125 -2.046874 0 -2.828124 l 14.144531 -14.140626 c 0.78125 -0.78125 2.046875 -0.78125 2.828125 0 s 0.78125 2.046876 0 2.828126 l -14.140625 14.140624 c -0.78125 0.78125 -2.050781 0.78125 -2.832031 0 z m 0 0"/>
        <path d="m 84.585938 80.585938 c 0.78125 -0.78125 2.050781 -0.78125 2.832031 0 l 14.140625 14.144531 c 0.78125 0.78125 0.78125 2.046875 0 2.828125 s -2.046875 0.78125 -2.828125 0 l -14.144531 -14.140625 c -0.78125 -0.78125 -0.78125 -2.050781 0 -2.832031 z m 0 0"/>
        <path d="m 43.8125 80.585938 c 0.78125 0.78125 0.78125 2.050781 0 2.832031 l -14.140625 14.140625 c -0.78125 0.78125 -2.050781 0.78125 -2.832031 0 s -0.78125 -2.046875 0 -2.828125 l 14.144531 -14.144531 c 0.78125 -0.78125 2.046875 -0.78125 2.828125 0 z m 0 0"/>
        <path d="m 106 60 c 0 1.105469 -0.894531 2 -2 2 h -12 c -1.105469 0 -2 -0.894531 -2 -2 s 0.894531 -2 2 -2 h 12 c 1.105469 0 2 0.894531 2 2 z m 0 0"/>
    </g>
</svg>
